# xmcd
#
# Track frame offsets:
#	150
#	10818
#	20696
#	30727
#	42053
#	52984
#	63916
#	74754
#	84220
#	96408
#	108370
#	119508
#	134126
#	147514
#	163151
#	174739
#	191277
#	203801
#	219025
#	231474
#	245574
#	256995
#	271565
#	284861
#	301662
#	313625
#	326787
#	340551
#
# Disc length: 4754 seconds
#
# Revision: 0
# Processed by: cddbd v1.5.2PL0 Copyright (c) Steve Scherf et al.
# Submitted via: audiograbber 1.83.01
#
DISCID=9e12901c
DTITLE=Frank Sinatra - Songs for Young Lovers and This Is Sinatra
DYEAR=1900
DGENRE=
TTITLE0=The Girl Next Door
TTITLE1=They Can`t Take That Away From Me
TTITLE2=Violets For Your Furs
TTITLE3=Someone to Watch over Me
TTITLE4=My One Ami Only Lore
TTITLE5=Little Girl Blue
TTITLE6=Like Someone in Love
TTITLE7=A Foggy Day
TTITLE8=It Worries Me
TTITLE9=I Can Read Betu`een The Lines
TTITLE10=I Get a Kick Out of You
TTITLE11=My Funny Valentine
TTITLE12=Hey! Jealous Lover
TTITLE13=Everybody Love Somebody
TTITLE14=Something Wonderful Happens in Summer
TTITLE15=Half as Lovely Twice as True
TTITLE16=You`re Cheatin` Yourself
TTITLE17=You`ll Always Be The One I Love
TTITLE18=You Forgot All the Words
TTITLE19=How Little We Know
TTITLE20=Time After Time
TTITLE21=Crazy Love
TTITLE22=Wait For Me
TTITLE23=If You Are But a Dream
TTITLE24=So Long, My Love
TTITLE25=It`s The Same Old Dream
TTITLE26=I Believe
TTITLE27=Put Your Dreams Away
EXTD=
EXTT0=
EXTT1=
EXTT2=
EXTT3=
EXTT4=
EXTT5=
EXTT6=
EXTT7=
EXTT8=
EXTT9=
EXTT10=
EXTT11=
EXTT12=
EXTT13=
EXTT14=
EXTT15=
EXTT16=
EXTT17=
EXTT18=
EXTT19=
EXTT20=
EXTT21=
EXTT22=
EXTT23=
EXTT24=
EXTT25=
EXTT26=
EXTT27=
PLAYORDER=
